<svg aria-hidden="true" style="position: absolute; width: 0; height: 0; overflow: hidden;" version="1.1" xmlns="http://www.w3.org/2000/svg" xmlns:xlink="http://www.w3.org/1999/xlink">
<defs>
<symbol id="icon-data-close" viewBox="0 0 32 32">
<path d="M26.667 7.303l-1.97-1.97-7.808 7.808-7.808-7.808-1.97 1.97 7.808 7.808-7.808 7.808 1.97 1.97 7.808-7.808 7.808 7.808 1.97-1.97-7.808-7.808 7.808-7.808z"></path>
</symbol>
<symbol id="icon-data-mail" viewBox="0 0 32 32">
<path d="M26.667 5.333h-21.333c-1.467 0-2.652 1.2-2.652 2.667l-0.014 16c0 1.467 1.2 2.667 2.667 2.667h21.333c1.467 0 2.667-1.2 2.667-2.667v-16c0-1.467-1.2-2.667-2.667-2.667zM26.133 11.001l-9.426 5.892c-0.201 0.126-0.446 0.2-0.708 0.2s-0.506-0.075-0.713-0.204l0.006 0.003-9.426-5.892c-0.336-0.201-0.557-0.562-0.557-0.975 0-0.625 0.507-1.132 1.132-1.132 0.233 0 0.449 0.070 0.629 0.19l-0.004-0.003 8.933 5.586 8.933-5.588c0.176-0.118 0.392-0.188 0.624-0.188 0.625 0 1.132 0.507 1.132 1.132 0 0.413-0.221 0.775-0.552 0.972l-0.005 0.003z"></path>
</symbol>
<symbol id="icon-data-name" viewBox="0 0 32 32">
<path d="M16 16c2.946 0 5.333-2.388 5.333-5.333s-2.388-5.333-5.333-5.333v0c-2.946 0-5.333 2.388-5.333 5.333s2.388 5.333 5.333 5.333v0zM16 18.667c-3.561 0-10.667 1.787-10.667 5.333v1.333c0 0.732 0.599 1.333 1.333 1.333h18.667c0.732 0 1.333-0.601 1.333-1.333v-1.333c0-3.547-7.108-5.333-10.667-5.333z"></path>
</symbol>
<symbol id="icon-date-tel" viewBox="0 0 32 32">
<path d="M24.882 19.774l-3.268-0.373c-0.090-0.011-0.194-0.018-0.3-0.018-0.707 0-1.347 0.287-1.81 0.75l-2.366 2.368c-3.669-1.894-6.585-4.81-8.427-8.372l-0.051-0.108 2.38-2.377c0.463-0.463 0.75-1.103 0.75-1.81 0-0.106-0.006-0.21-0.019-0.312l0.001 0.012-0.373-3.243c-0.155-1.287-1.24-2.276-2.557-2.276-0.001 0-0.002 0-0.003 0h-2.226c-1.454 0-2.663 1.209-2.574 2.663 0.683 10.987 9.47 19.76 20.444 20.443 1.452 0.089 2.663-1.12 2.663-2.574v-2.224c0-0.004 0-0.009 0-0.014 0-1.308-0.985-2.386-2.253-2.532l-0.012-0.001z"></path>
</symbol>
<symbol id="icon-facebook-white" viewBox="0 0 32 32">
<path d="M21.328 5.312h2.923v-5.088c-1.232-0.143-2.66-0.224-4.108-0.224-0.052 0-0.104 0-0.156 0l0.008-0c-4.213 0-7.099 2.65-7.099 7.52v4.48h-4.646v5.688h4.646v14.312h5.699v-14.31h4.459l0.707-5.688h-5.168v-3.922c0-1.643 0.443-2.768 2.734-2.768z"></path>
</symbol>
<symbol id="icon-instagram-white" viewBox="0 0 32 32">
<path d="M31.968 9.408c-0.074-1.701-0.349-2.869-0.742-3.882-0.424-1.111-1.054-2.059-1.85-2.837l-0.001-0.001c-0.78-0.792-1.724-1.419-2.778-1.827l-0.054-0.018c-1.019-0.394-2.181-0.667-3.882-0.742-1.712-0.082-2.256-0.101-6.602-0.101-4.344 0-4.888 0.019-6.595 0.094-1.699 0.074-2.869 0.349-3.88 0.742-1.112 0.424-2.060 1.054-2.839 1.85l-0.001 0.001c-0.791 0.78-1.418 1.724-1.825 2.778l-0.018 0.054c-0.395 1.019-0.669 2.181-0.744 3.882-0.082 1.712-0.101 2.256-0.101 6.602 0 4.344 0.019 4.888 0.094 6.595 0.075 1.701 0.35 2.869 0.744 3.882 0.426 1.11 1.055 2.057 1.849 2.837l0.001 0.001c0.8 0.813 1.77 1.443 2.832 1.843 1.019 0.395 2.182 0.67 3.882 0.744 1.707 0.075 2.251 0.094 6.595 0.094 4.346 0 4.89-0.019 6.595-0.094 1.701-0.074 2.869-0.349 3.882-0.742 2.157-0.85 3.833-2.526 4.664-4.628l0.019-0.055c0.394-1.019 0.669-2.182 0.744-3.882 0.075-1.707 0.093-2.251 0.093-6.595s-0.006-4.888-0.080-6.595zM29.088 22.474c-0.070 1.563-0.333 2.406-0.55 2.97-0.552 1.399-1.64 2.486-3.004 3.024l-0.036 0.012c-0.56 0.219-1.411 0.482-2.968 0.55-1.688 0.075-2.194 0.094-6.464 0.094-4.269 0-4.782-0.019-6.464-0.094-1.563-0.069-2.406-0.331-2.97-0.55-0.721-0.269-1.334-0.676-1.836-1.192l-0.001-0.001c-0.517-0.503-0.924-1.117-1.184-1.803l-0.011-0.034c-0.218-0.563-0.48-1.413-0.549-2.97-0.075-1.688-0.094-2.195-0.094-6.464 0-4.27 0.019-4.784 0.094-6.464 0.069-1.563 0.331-2.406 0.549-2.97 0.269-0.722 0.678-1.337 1.198-1.837l0.002-0.002c0.504-0.517 1.119-0.923 1.806-1.182l0.034-0.011c0.56-0.219 1.411-0.48 2.968-0.55 1.688-0.074 2.195-0.093 6.464-0.093 4.275 0 4.782 0.019 6.464 0.093 1.563 0.069 2.406 0.331 2.97 0.55 0.693 0.256 1.325 0.662 1.837 1.194 0.531 0.52 0.938 1.144 1.195 1.84 0.218 0.56 0.48 1.411 0.549 2.968 0.075 1.688 0.094 2.194 0.094 6.464 0 4.269-0.019 4.768-0.094 6.458z"></path>
<path d="M16.059 7.782c-4.539 0.002-8.218 3.682-8.219 8.221v0c0 0 0 0.001 0 0.002 0 4.541 3.681 8.222 8.222 8.222s8.222-3.681 8.222-8.222c0-4.541-3.681-8.222-8.222-8.222-0.001 0-0.001 0-0.002 0h0zM16.059 21.334c-2.945-0-5.332-2.388-5.332-5.333s2.388-5.333 5.333-5.333c0 0 0.001 0 0.001 0h-0c2.946 0 5.334 2.388 5.334 5.334s-2.388 5.334-5.334 5.334v0zM26.525 7.458c0 1.060-0.86 1.92-1.92 1.92s-1.92-0.86-1.92-1.92v0c0-1.060 0.86-1.92 1.92-1.92s1.92 0.86 1.92 1.92v0z"></path>
</symbol>
<symbol id="icon-linkedin-white" viewBox="0 0 32 32">
<path d="M31.992 32h0.008v-11.738c0-5.741-1.237-10.163-7.947-10.163-3.227 0-5.392 1.77-6.277 3.45h-0.093v-2.914h-6.365v21.363h6.627v-10.578c0-2.786 0.528-5.48 3.978-5.48 3.398 0 3.448 3.179 3.448 5.658v10.402h6.621zM0.528 10.635h6.635v21.365h-6.635v-21.365zM3.843 0c-2.123 0-3.843 1.721-3.843 3.843v0c0 2.12 1.722 3.878 3.843 3.878 2.12 0 3.842-1.757 3.842-3.878s-1.72-3.841-3.841-3.843h-0z"></path>
</symbol>
<symbol id="icon-logo-brand" viewBox="0 0 32 32">
<path d="M8.298 20.612c0.069 0.086 0.106 0.194 0.104 0.305 0 0.007 0.001 0.015 0.001 0.023 0 0.144-0.063 0.273-0.162 0.362l-0 0c-0.135 0.102-0.302 0.152-0.47 0.141h-0.827v-1.934h0.81c0.014-0.001 0.030-0.002 0.046-0.002 0.151 0 0.291 0.049 0.405 0.131l-0.002-0.001c0.097 0.082 0.158 0.203 0.158 0.338 0 0.008-0 0.016-0.001 0.025l0-0.001c0.005 0.107-0.029 0.211-0.094 0.296-0.063 0.077-0.15 0.13-0.247 0.151 0.11 0.020 0.209 0.078 0.28 0.165zM7.328 20.32h0.346c0.079 0.006 0.157-0.017 0.22-0.064 0.046-0.042 0.075-0.103 0.075-0.17 0-0.007-0-0.013-0.001-0.020l0 0.001c0-0.005 0.001-0.011 0.001-0.016 0-0.068-0.028-0.129-0.074-0.172l-0-0c-0.055-0.041-0.124-0.066-0.2-0.066-0.010 0-0.019 0-0.028 0.001l0.001-0h-0.341v0.507zM7.928 21.062c0.051-0.044 0.082-0.109 0.082-0.181 0-0.005-0-0.011-0.001-0.016l0 0.001c0-0.004 0-0.009 0-0.014 0-0.073-0.032-0.139-0.084-0.184l-0-0c-0.059-0.044-0.133-0.070-0.213-0.070-0.008 0-0.016 0-0.024 0.001l0.001-0h-0.363v0.532h0.368c0.083 0.005 0.165-0.019 0.232-0.067zM9.954 21.443l-0.45-0.756h-0.169v0.756h-0.388v-1.934h0.734c0.015-0.001 0.033-0.002 0.050-0.002 0.176 0 0.337 0.063 0.462 0.167l-0.001-0.001c0.109 0.111 0.176 0.264 0.176 0.432 0 0.139-0.046 0.267-0.123 0.37l0.001-0.002c-0.091 0.104-0.214 0.174-0.35 0.196l0.48 0.773h-0.422zM9.334 20.424h0.317c0.22 0 0.33-0.098 0.33-0.293 0-0.005 0-0.011 0-0.017 0-0.078-0.031-0.149-0.081-0.201l0 0c-0.059-0.050-0.136-0.080-0.22-0.080-0.010 0-0.021 0-0.031 0.001l0.001-0h-0.321l0.004 0.589zM12.072 21.054h-0.772l-0.136 0.389h-0.406l0.709-1.912h0.439l0.706 1.912h-0.406l-0.134-0.389zM11.969 20.761l-0.282-0.816-0.282 0.816h0.565zM14.725 21.443h-0.385l-0.863-1.315v1.315h-0.384v-1.934h0.384l0.863 1.322v-1.322h0.385v1.934zM16.921 20.981c-0.081 0.146-0.2 0.263-0.344 0.339l-0.005 0.002c-0.168 0.085-0.353 0.127-0.541 0.122h-0.685v-1.934h0.685c0.009-0 0.019-0 0.030-0 0.186 0 0.362 0.044 0.518 0.123l-0.007-0.003c0.147 0.074 0.269 0.192 0.348 0.337 0.076 0.148 0.12 0.322 0.12 0.507s-0.045 0.36-0.123 0.514l0.003-0.006zM16.48 20.934c0.106-0.123 0.17-0.285 0.17-0.461s-0.064-0.338-0.171-0.462l0.001 0.001c-0.117-0.103-0.271-0.166-0.44-0.166-0.015 0-0.029 0-0.043 0.001l0.002-0h-0.267v1.252h0.267c0.012 0.001 0.027 0.001 0.042 0.001 0.169 0 0.323-0.063 0.441-0.166l-0.001 0.001zM12.314 8.755s4.966 1.883 4.861 4.607v4.608s-4.963-1.884-4.859-4.608l-0.002-4.607zM21.599 16.891c0.889-0.622 1.963-1.040 3.126-1.165l0.030-0.003v-1.442c-1.328 0.524-2.411 1.431-3.14 2.584l-0.016 0.027z"></path>
<path d="M21.035 17.325c0.776-1.546 2.081-2.731 3.673-3.331l0.047-0.015v-4.156s-7.073 2.682-6.923 6.561v6.56s0.315-0.12 0.811-0.345c0-0.21 0-0.421 0.023-0.634 0.155-1.865 1.038-3.497 2.361-4.632l0.009-0.008z"></path>
<path d="M20.363 19.762c0.037-0.455 0.12-0.905 0.248-1.343-0.904 1.064-1.464 2.445-1.498 3.955l-0 0.007c0.576-0.277 1.022-0.517 1.457-0.772l-0.097 0.052c-0.085-0.403-0.133-0.865-0.133-1.339 0-0.197 0.008-0.392 0.025-0.585l-0.002 0.025zM20.645 19.786c-0.014 0.159-0.022 0.345-0.022 0.532 0 0.42 0.040 0.831 0.116 1.229l-0.006-0.041c1.932-1.161 4.104-2.955 4.020-5.122v-0.189c-1.439 0.166-2.708 0.793-3.679 1.727l0.002-0.002c-0.222 0.547-0.375 1.181-0.429 1.843l-0.002 0.023z"></path>
</symbol>
<symbol id="icon-logo-company" viewBox="0 0 32 32">
<path d="M11.576 22.278c0.009 0 0.018 0.004 0.024 0.010v0l0.062 0.065c-0.048 0.053-0.108 0.095-0.175 0.123-0.079 0.031-0.163 0.047-0.248 0.044-0.004 0-0.008 0-0.013 0-0.079 0-0.155-0.015-0.225-0.043l0.004 0.001c-0.135-0.054-0.239-0.161-0.288-0.294l-0.001-0.003c-0.025-0.066-0.039-0.143-0.039-0.223 0-0.003 0-0.006 0-0.009v0c-0-0.003-0-0.006-0-0.009 0-0.080 0.016-0.157 0.044-0.227l-0.001 0.004c0.027-0.067 0.068-0.128 0.121-0.18s0.116-0.091 0.186-0.118c0.076-0.028 0.158-0.042 0.24-0.041 0.076-0.002 0.152 0.011 0.223 0.038 0.061 0.025 0.118 0.060 0.167 0.104l-0.052 0.069c-0.004 0.005-0.008 0.009-0.013 0.013l-0 0c-0.005 0.003-0.012 0.006-0.018 0.006-0.001 0-0.002-0-0.003-0h0c-0.008-0.001-0.016-0.003-0.023-0.008l0 0-0.028-0.018-0.039-0.024c-0.035-0.019-0.077-0.033-0.12-0.041l-0.003-0c-0.025-0.005-0.055-0.007-0.085-0.007-0.003 0-0.005 0-0.008 0h0c-0.002-0-0.004-0-0.006-0-0.060 0-0.117 0.011-0.169 0.032l0.003-0.001c-0.053 0.021-0.098 0.050-0.135 0.088l0-0c-0.039 0.040-0.069 0.088-0.088 0.139-0.022 0.059-0.033 0.121-0.032 0.184-0.001 0.063 0.010 0.127 0.032 0.187 0.019 0.051 0.048 0.098 0.086 0.138 0.036 0.038 0.080 0.067 0.129 0.086 0.051 0.020 0.105 0.030 0.16 0.030 0.032 0 0.063-0.002 0.095-0.006 0.051-0.006 0.1-0.023 0.144-0.049 0.022-0.014 0.042-0.029 0.061-0.046 0.008-0.007 0.018-0.012 0.030-0.012h0zM13.37 21.95c0.001 0.078-0.013 0.157-0.042 0.23-0.027 0.070-0.067 0.13-0.117 0.179l-0 0c-0.051 0.050-0.112 0.090-0.18 0.116l-0.004 0.001c-0.070 0.026-0.151 0.041-0.236 0.041s-0.166-0.015-0.241-0.043l0.005 0.002c-0.071-0.028-0.132-0.068-0.183-0.118l0 0c-0.050-0.050-0.090-0.11-0.117-0.177l-0.001-0.004c-0.027-0.068-0.042-0.148-0.042-0.23s0.015-0.162 0.043-0.235l-0.002 0.004c0.026-0.067 0.066-0.129 0.118-0.181 0.051-0.048 0.112-0.087 0.179-0.112l0.004-0.001c0.070-0.027 0.151-0.042 0.236-0.042s0.166 0.015 0.241 0.044l-0.005-0.002c0.069 0.027 0.131 0.066 0.183 0.118s0.091 0.112 0.117 0.178c0.029 0.074 0.043 0.152 0.042 0.232zM13.207 21.95c0-0.003 0-0.006 0-0.010 0-0.063-0.011-0.123-0.031-0.179l0.001 0.004c-0.035-0.104-0.113-0.185-0.212-0.225l-0.002-0.001c-0.051-0.019-0.11-0.030-0.172-0.030s-0.121 0.011-0.175 0.031l0.003-0.001c-0.102 0.040-0.18 0.121-0.214 0.223l-0.001 0.003c-0.039 0.121-0.039 0.25 0 0.37 0.035 0.104 0.113 0.185 0.212 0.224l0.002 0.001c0.111 0.039 0.232 0.039 0.343 0 0.050-0.019 0.095-0.049 0.131-0.087 0.037-0.040 0.066-0.088 0.083-0.138 0.021-0.060 0.031-0.122 0.030-0.185zM14.593 22.144l0.017 0.041c0.006-0.015 0.011-0.028 0.018-0.041 0.007-0.016 0.014-0.030 0.021-0.043l-0.001 0.002 0.397-0.687c0.008-0.012 0.015-0.019 0.023-0.021s0.017-0.004 0.027-0.004c0.002 0 0.004 0 0.006 0h0.117v1.118h-0.139v-0.856c-0-0.006-0.001-0.013-0.001-0.019s0-0.014 0.001-0.020l-0 0.001-0.399 0.697c-0.005 0.011-0.013 0.019-0.023 0.025l-0 0c-0.009 0.006-0.021 0.009-0.033 0.009-0 0-0.001 0-0.001 0h-0.022c-0.012 0-0.024-0.003-0.034-0.009s-0.018-0.015-0.023-0.025l-0-0-0.411-0.702v0.898h-0.134v-1.115h0.117c0.002-0 0.004-0 0.006-0 0.010 0 0.019 0.001 0.028 0.004l-0.001-0c0.010 0.005 0.017 0.012 0.022 0.021l0 0 0.405 0.688c0.007 0.011 0.014 0.024 0.020 0.038l0.001 0.002zM16.087 22.089v0.418h-0.155v-1.116h0.346c0.004-0 0.009-0 0.013-0 0.064 0 0.126 0.009 0.185 0.025l-0.005-0.001c0.050 0.014 0.097 0.037 0.137 0.069 0.034 0.030 0.061 0.068 0.078 0.11 0.018 0.046 0.027 0.094 0.026 0.143 0.001 0.049-0.009 0.098-0.029 0.143s-0.048 0.082-0.083 0.111l-0 0c-0.039 0.033-0.084 0.058-0.135 0.073l-0.003 0.001c-0.060 0.018-0.124 0.027-0.187 0.026l-0.188-0.003zM16.087 21.969h0.188c0.041 0.001 0.081-0.005 0.12-0.017 0.034-0.011 0.062-0.027 0.087-0.049l-0 0c0.023-0.020 0.041-0.044 0.052-0.072l0-0.001c0.012-0.027 0.019-0.058 0.019-0.091 0-0.001 0-0.002-0-0.003v0c0-0.003 0-0.007 0-0.011 0-0.029-0.006-0.056-0.017-0.081l0 0.001c-0.013-0.030-0.031-0.056-0.054-0.076l-0-0c-0.051-0.038-0.116-0.061-0.185-0.061-0.008 0-0.017 0-0.025 0.001l0.001-0h-0.188v0.46zM18.174 22.509h-0.123c-0.001 0-0.001 0-0.002 0-0.012 0-0.023-0.004-0.032-0.010l0 0c-0.009-0.007-0.016-0.016-0.020-0.026l-0-0-0.106-0.27h-0.53l-0.11 0.27c-0.004 0.010-0.011 0.019-0.019 0.025l-0 0c-0.009 0.007-0.021 0.011-0.033 0.011-0.001 0-0.001 0-0.002-0h-0.122l0.466-1.118h0.162l0.472 1.118zM17.405 22.094h0.438l-0.185-0.455c-0.012-0.029-0.024-0.064-0.034-0.1l-0.001-0.006-0.018 0.059c-0.006 0.020-0.012 0.036-0.018 0.051l0.001-0.004-0.183 0.454zM18.845 21.396c0.009 0.005 0.017 0.012 0.024 0.020l0.679 0.842v-0.867h0.139v1.118h-0.078c-0.001 0-0.001 0-0.002 0-0.011 0-0.021-0.002-0.030-0.007l0 0c-0.010-0.006-0.018-0.012-0.025-0.021l-0-0-0.679-0.842c0.001 0.013 0.001 0.026 0 0.038v0.831h-0.139v-1.118h0.082c0.010 0 0.019 0.002 0.028 0.005zM20.831 22.064v0.444h-0.155v-0.444l-0.429-0.673h0.139c0.001-0 0.002-0 0.003-0 0.011 0 0.022 0.004 0.031 0.010l-0-0c0.008 0.007 0.015 0.015 0.021 0.025l0 0 0.269 0.434c0.018 0.028 0.034 0.061 0.046 0.096l0.001 0.003 0.020-0.048c0.008-0.017 0.016-0.035 0.027-0.051l0.265-0.437c0.006-0.009 0.012-0.017 0.020-0.024l0-0c0.008-0.007 0.019-0.011 0.031-0.011 0.001 0 0.002 0 0.003 0h0.141l-0.43 0.676zM14.517 19.515c0.068 0.008 0.136 0.015 0.205 0.021 1.048-0.447 1.934-1.177 2.548-2.101s0.929-2 0.905-3.093l-1.155-1.1c0.077 0.363 0.12 0.779 0.12 1.206 0 0.817-0.161 1.597-0.452 2.31l0.015-0.041c-0.442 1.108-1.199 2.077-2.186 2.799z"></path>
<path d="M14.104 19.464l0.031 0.006c1.055-0.719 1.859-1.723 2.309-2.882 0.254-0.634 0.402-1.37 0.402-2.14 0-0.526-0.069-1.036-0.198-1.521l0.009 0.041-1.644-1.567c0.515 0.972 0.817 2.125 0.817 3.348 0 0.285-0.016 0.566-0.048 0.842l0.003-0.034c-0.161 1.427-0.744 2.782-1.681 3.906zM19.682 15.633c-0.28 1.202-0.958 2.285-1.935 3.089-0.27 0.224-0.57 0.433-0.889 0.613l-0.030 0.016c0.827-0.234 1.543-0.631 2.144-1.157l-0.006 0.005c0.594-0.52 1.065-1.166 1.371-1.898l0.013-0.034-0.667-0.635z"></path>
<path d="M19.42 15.457l-0.95-0.905c-0.022 1.088-0.351 2.094-0.905 2.941l0.013-0.021c-0.565 0.88-1.368 1.6-2.324 2.084h0.005c0.213 0 0.426-0.012 0.637-0.036 0.913-0.358 1.684-0.908 2.292-1.602l0.006-0.007c0.59-0.674 1.019-1.502 1.219-2.417l0.007-0.036zM14.242 10.741l-1.133-1.081c-1.013 0.373-1.884 1.028-2.499 1.881s-0.946 1.862-0.949 2.896c0.004 1.143 0.408 2.252 1.147 3.152s1.774 1.539 2.938 1.816c1.039-1.206 1.647-2.696 1.737-4.255s-0.345-3.102-1.241-4.409zM22.038 15.29c-0.004-1.356-0.571-2.656-1.578-3.614s-2.37-1.499-3.794-1.503c-0.658-0.001-1.31 0.115-1.923 0.341l6.936 6.608c0.227-0.541 0.359-1.171 0.359-1.831 0-0 0-0 0-0.001v0z"></path>
</symbol>
<symbol id="icon-logo-company-tag" viewBox="0 0 32 32">
<path d="M16.223 15.503c-0.109-0.156-0.174-0.35-0.174-0.559 0-0.022 0.001-0.044 0.002-0.065l-0 0.003v-0.9c0-0.276 0.057-0.486 0.171-0.629s0.31-0.215 0.588-0.214c0.261 0 0.447 0.061 0.556 0.183 0.12 0.156 0.178 0.346 0.164 0.539v0.211h-0.467v-0.214c0-0.008 0-0.018 0-0.028 0-0.064-0.005-0.127-0.015-0.189l0.001 0.007c-0.007-0.050-0.032-0.093-0.067-0.125l-0-0c-0.041-0.031-0.093-0.049-0.15-0.049-0.007 0-0.014 0-0.021 0.001l0.001-0c-0.006-0-0.013-0.001-0.020-0.001-0.060 0-0.115 0.020-0.159 0.053l0.001-0.001c-0.039 0.035-0.067 0.082-0.077 0.136l-0 0.002c-0.013 0.073-0.019 0.148-0.018 0.223v1.093c-0.008 0.105 0.013 0.211 0.060 0.307 0.024 0.033 0.055 0.058 0.092 0.074l0.001 0.001c0.027 0.012 0.059 0.019 0.092 0.019 0.010 0 0.020-0.001 0.029-0.002l-0.001 0c0.006 0.001 0.012 0.001 0.019 0.001 0.055 0 0.106-0.019 0.147-0.051l-0 0c0.037-0.034 0.062-0.080 0.069-0.132l0-0.001c0.011-0.072 0.016-0.146 0.015-0.219v-0.222h0.467v0.202c0.001 0.017 0.002 0.036 0.002 0.056 0 0.191-0.061 0.369-0.165 0.513l0.002-0.003c-0.107 0.134-0.29 0.2-0.559 0.2s-0.472-0.071-0.587-0.22zM18.169 15.512c-0.118-0.14-0.177-0.344-0.177-0.615v-0.947c0-0.267 0.059-0.47 0.177-0.607s0.315-0.206 0.592-0.205c0.275 0 0.471 0.069 0.589 0.205s0.178 0.34 0.178 0.607v0.947c0 0.267-0.060 0.472-0.18 0.614s-0.315 0.211-0.587 0.211c-0.272 0-0.473-0.071-0.592-0.21zM18.979 15.285c0.042-0.088 0.062-0.184 0.056-0.28v-1.16c0.001-0.009 0.001-0.020 0.001-0.031 0-0.089-0.021-0.172-0.058-0.247l0.001 0.003c-0.024-0.033-0.056-0.059-0.094-0.075l-0.001-0.001c-0.027-0.012-0.058-0.018-0.092-0.018-0.011 0-0.022 0.001-0.033 0.002l0.001-0c-0.009-0.001-0.020-0.002-0.032-0.002-0.033 0-0.065 0.007-0.094 0.019l0.002-0.001c-0.039 0.017-0.072 0.042-0.096 0.075l-0 0.001c-0.042 0.085-0.062 0.18-0.056 0.275v1.165c-0.006 0.097 0.013 0.193 0.056 0.28 0.027 0.029 0.060 0.053 0.097 0.069l0.002 0.001c0.035 0.016 0.077 0.025 0.12 0.025s0.085-0.009 0.122-0.025l-0.002 0.001c0.039-0.017 0.071-0.040 0.098-0.069l0-0v-0.005zM20.091 13.165h0.503l0.378 1.748 0.387-1.748h0.49l0.049 2.523h-0.361l-0.039-1.753-0.373 1.753h-0.29l-0.387-1.759-0.036 1.759h-0.366l0.045-2.522zM22.462 13.165h0.784c0.452 0 0.677 0.239 0.677 0.716 0 0.457-0.238 0.686-0.713 0.685h-0.267v1.121h-0.484l0.003-2.522zM23.132 14.243c0.048 0.006 0.096 0.002 0.142-0.012s0.088-0.037 0.124-0.067c0.056-0.085 0.080-0.185 0.070-0.285 0-0.008 0-0.018 0-0.028 0-0.071-0.009-0.141-0.025-0.207l0.001 0.006c-0.008-0.027-0.020-0.050-0.036-0.069l0 0c-0.017-0.021-0.037-0.038-0.060-0.050l-0.001-0.001c-0.056-0.026-0.121-0.041-0.19-0.041-0.009 0-0.018 0-0.027 0.001l0.001-0h-0.188v0.754h0.188zM24.621 13.165h0.52l0.533 2.523h-0.451l-0.105-0.582h-0.463l-0.109 0.582h-0.457l0.533-2.522zM25.065 14.814l-0.181-1.059-0.181 1.059h0.362zM26.104 13.165h0.339l0.648 1.439v-1.439h0.401v2.522h-0.322l-0.652-1.502v1.502h-0.415l0.001-2.522zM28.433 14.726l-0.539-1.557h0.454l0.329 1 0.309-1h0.444l-0.532 1.557v0.962h-0.464v-0.962zM16.971 16.791v0.132h-0.395v1.025h-0.165v-1.025h-0.397v-0.132h0.957zM18.208 17.947h-0.128c-0.001 0-0.002 0-0.003 0-0.012 0-0.024-0.004-0.033-0.011l0 0c-0.009-0.007-0.017-0.016-0.021-0.026l-0-0-0.114-0.275h-0.548l-0.114 0.275c-0.004 0.012-0.010 0.023-0.018 0.031l0-0c-0.009 0.007-0.021 0.011-0.033 0.011-0.001 0-0.002-0-0.003-0h-0.128l0.484-1.157h0.168l0.49 1.152zM17.407 17.518h0.457l-0.193-0.471c-0.012-0.029-0.025-0.065-0.035-0.102l-0.001-0.006-0.018 0.061-0.017 0.048-0.192 0.47zM19.042 17.834c0.030 0.002 0.060 0.002 0.091 0 0.026-0.003 0.052-0.007 0.078-0.014 0.028-0.006 0.051-0.014 0.073-0.022l-0.004 0.001c0.021-0.008 0.043-0.018 0.065-0.028v-0.26h-0.194c-0.001 0-0.001 0-0.002 0-0.009 0-0.018-0.003-0.024-0.009l0 0c-0.006-0.005-0.010-0.012-0.010-0.020 0-0 0-0.001 0-0.001v0-0.089h0.376v0.443c-0.059 0.040-0.126 0.072-0.199 0.093l-0.005 0.001c-0.034 0.010-0.075 0.019-0.117 0.024l-0.004 0c-0.042 0.005-0.090 0.007-0.14 0.007-0.001 0-0.001 0-0.002 0h0c-0.002 0-0.004 0-0.005 0-0.086 0-0.168-0.016-0.243-0.045l0.005 0.002c-0.075-0.029-0.139-0.070-0.194-0.121l0 0c-0.052-0.051-0.094-0.112-0.124-0.18l-0.001-0.004c-0.028-0.069-0.044-0.148-0.044-0.232 0-0.003 0-0.006 0-0.009v0c-0-0.002-0-0.005-0-0.008 0-0.084 0.016-0.165 0.045-0.238l-0.002 0.004c0.028-0.069 0.070-0.131 0.125-0.183s0.121-0.093 0.194-0.12c0.083-0.030 0.171-0.044 0.259-0.043 0.045 0 0.090 0.003 0.135 0.010 0.039 0.006 0.078 0.016 0.115 0.029 0.034 0.012 0.066 0.027 0.097 0.046s0.058 0.038 0.085 0.060l-0.047 0.072c-0.004 0.007-0.009 0.012-0.015 0.016l-0 0c-0.006 0.004-0.014 0.006-0.022 0.006h-0c-0.011-0-0.021-0.004-0.030-0.009l0 0c-0.019-0.010-0.035-0.019-0.050-0.029l0.002 0.001c-0.018-0.011-0.040-0.022-0.062-0.030l-0.003-0.001c-0.025-0.010-0.055-0.019-0.085-0.025l-0.004-0.001c-0.035-0.006-0.075-0.010-0.116-0.010-0.002 0-0.005 0-0.007 0h0c-0.002-0-0.004-0-0.006-0-0.065 0-0.127 0.012-0.184 0.033l0.004-0.001c-0.055 0.021-0.103 0.052-0.142 0.091l0-0c-0.040 0.042-0.071 0.091-0.090 0.144-0.021 0.057-0.032 0.124-0.032 0.193s0.012 0.135 0.034 0.197l-0.001-0.004c0.021 0.054 0.054 0.104 0.097 0.146 0.040 0.040 0.088 0.071 0.141 0.091 0.062 0.020 0.127 0.028 0.192 0.023zM20.584 17.816h0.528v0.132h-0.69v-1.157h0.165l-0.004 1.025zM21.662 17.947h-0.166v-1.156h0.166v1.157zM22.277 16.796c0.010 0.005 0.018 0.012 0.025 0.021l0.707 0.872c-0-0.006-0.001-0.013-0.001-0.021s0-0.015 0.001-0.022l-0 0.001v-0.862h0.144v1.161h-0.083c-0.002 0-0.004 0-0.006 0-0.011 0-0.021-0.002-0.031-0.007l0 0c-0.010-0.006-0.019-0.013-0.026-0.022l-0-0-0.706-0.871v0.899h-0.138v-1.157h0.086c0.009 0 0.019 0.002 0.027 0.005zM24.372 16.791v0.127h-0.586v0.382h0.475v0.123h-0.475v0.395h0.586v0.127h-0.757v-1.154h0.757zM7.035 9.646l7.346 1.975v6.92l-7.346-1.973v-6.921zM6.564 9.057v7.847l8.288 2.229v-7.846l-8.288-2.229z"></path>
<path d="M11.006 22.774l-8.289-2.23v-7.846l8.289 2.229v7.847z"></path>
<path d="M6.701 9.558l7.25 1.95-3.083 2.92-7.251-1.951 3.084-2.919zM6.564 9.057l-3.847 3.642 8.289 2.229 3.846-3.642-8.288-2.229zM11.472 22.333l3.379-3.2-3.379-0.91v4.11z"></path>
</symbol>
<symbol id="icon-logo-company-tagline" viewBox="0 0 32 32">
<path d="M15.087 9.037h0.041c0.076 0 0.159 0.008 0.24 0.014 0.36 0.025 0.718 0.079 1.069 0.161v-0.864c-0.362-0.091-0.731-0.15-1.103-0.176-0.124-0.010-0.28-0.018-0.436-0.021l-0.010-0h-0.129c-0.747 0.003-1.491 0.099-2.215 0.286-0.824 0.205-1.615 0.527-2.35 0.956v8.573c0.644-0.358 1.389-0.657 2.174-0.859l0.066-0.014c0.551-0.147 1.194-0.25 1.854-0.287l0.026-0.001h0.025c0.106-0.005 0.212-0.008 0.322-0.009v-0.879c-0.873 0.012-1.714 0.129-2.516 0.341l0.072-0.016c-0.296 0.077-0.581 0.16-0.849 0.252l-0.306 0.104v-6.684l0.13-0.063c0.927-0.45 2.009-0.742 3.152-0.809l0.023-0.001c0.004-0 0.009-0.001 0.014-0.001s0.010 0 0.015 0.001l-0.001-0c0.121-0.006 0.243-0.009 0.363-0.009h0.137c0.063 0.002 0.127 0.003 0.19 0.007z"></path>
<path d="M17.241 9.942c-0.002 0-0.005 0-0.008 0-0.449 0-0.889-0.038-1.317-0.11l0.046 0.006c-0.136-0.023-0.27-0.051-0.399-0.081v8.475c0.549 0.136 1.114 0.202 1.68 0.198 0.788-0.003 1.551-0.107 2.278-0.299l-0.063 0.014c0.891-0.226 1.674-0.554 2.392-0.979l-0.042 0.023v-8.42c-0.643 0.357-1.389 0.656-2.173 0.859l-0.067 0.015c-0.761 0.196-1.543 0.296-2.328 0.299zM20.629 10.088l0.305-0.103v6.686l-0.13 0.063c-0.443 0.217-0.963 0.409-1.504 0.549l-0.058 0.013c-0.653 0.169-1.324 0.256-1.998 0.259-0.202 0-0.401-0.008-0.596-0.025l-0.209-0.018v-6.876l0.244 0.016c0.161 0.011 0.349 0.017 0.538 0.017 0.008 0 0.015 0 0.023-0h-0.001c0.903-0.003 1.777-0.122 2.61-0.342l-0.072 0.016c0.285-0.075 0.568-0.16 0.849-0.254zM10.789 20.894c-0.082-0.085-0.197-0.138-0.324-0.138-0.006 0-0.011 0-0.017 0l0.001-0c-0.002-0-0.004-0-0.007-0-0.068 0-0.133 0.014-0.193 0.038l0.003-0.001c-0.116 0.047-0.206 0.137-0.25 0.251l-0.001 0.003c-0.024 0.060-0.036 0.125-0.035 0.19v1.145c-0.003 0.081 0.013 0.161 0.045 0.235 0.027 0.059 0.066 0.111 0.115 0.154 0.046 0.038 0.1 0.066 0.157 0.081 0.056 0.015 0.114 0.024 0.171 0.024 0.064 0.001 0.127-0.013 0.185-0.040 0.172-0.076 0.29-0.246 0.29-0.442v0-0.128h-0.299v0.102c0 0.002 0 0.004 0 0.006 0 0.035-0.007 0.067-0.018 0.098l0.001-0.002c-0.010 0.025-0.025 0.047-0.043 0.065l-0 0c-0.034 0.027-0.078 0.043-0.125 0.044h-0c-0.005 0.001-0.011 0.001-0.018 0.001-0.050 0-0.095-0.024-0.123-0.062l-0-0c-0.025-0.040-0.040-0.089-0.040-0.142 0-0.004 0-0.008 0-0.012l-0 0.001v-1.068c-0.002-0.059 0.011-0.118 0.037-0.171 0.028-0.042 0.075-0.070 0.129-0.070 0.006 0 0.012 0 0.018 0.001l-0.001-0c0.002-0 0.004-0 0.006-0 0.052 0 0.099 0.025 0.128 0.064l0 0c0.031 0.040 0.050 0.092 0.050 0.148 0 0.002-0 0.004-0 0.006v-0 0.099h0.296v-0.117c0-0.002 0-0.003 0-0.005 0-0.070-0.013-0.137-0.038-0.199l0.001 0.004c-0.024-0.063-0.058-0.116-0.1-0.161l0 0zM12.567 20.881c-0.091-0.078-0.21-0.125-0.341-0.126h-0c-0.061 0-0.121 0.011-0.179 0.032-0.123 0.044-0.221 0.135-0.273 0.251l-0.001 0.003c-0.030 0.070-0.045 0.145-0.043 0.222v1.098c-0.002 0.077 0.013 0.154 0.043 0.225 0.027 0.059 0.067 0.112 0.116 0.154 0.046 0.042 0.1 0.075 0.158 0.097s0.118 0.032 0.179 0.032c0.131-0 0.25-0.049 0.341-0.129l-0.001 0c0.048-0.043 0.086-0.095 0.113-0.154 0.031-0.071 0.046-0.148 0.043-0.225v-1.099c0-0.003 0-0.007 0-0.010 0-0.076-0.016-0.149-0.045-0.215l0.001 0.003c-0.028-0.063-0.066-0.116-0.113-0.16l-0-0zM12.427 22.362c0 0.005 0.001 0.011 0.001 0.017 0 0.056-0.023 0.106-0.060 0.142l-0 0c-0.038 0.032-0.087 0.051-0.141 0.051s-0.103-0.019-0.141-0.052l0 0c-0.037-0.036-0.060-0.086-0.060-0.142 0-0.006 0-0.012 0.001-0.018l-0 0.001v-1.099c-0-0.005-0.001-0.011-0.001-0.017 0-0.056 0.023-0.106 0.060-0.142l0-0c0.038-0.032 0.087-0.051 0.141-0.051s0.103 0.019 0.141 0.051l-0-0c0.037 0.036 0.060 0.086 0.060 0.142 0 0.006-0 0.012-0.001 0.018l0-0.001v1.099zM14.903 22.853v-2.080h-0.288l-0.378 1.101h-0.005l-0.381-1.101h-0.285v2.079h0.297v-1.265h0.005l0.291 0.894h0.148l0.293-0.894h0.005v1.265h0.297zM16.591 20.919c-0.046-0.051-0.104-0.091-0.168-0.114-0.061-0.021-0.131-0.032-0.204-0.032-0.004 0-0.008 0-0.012 0h-0.441v2.080h0.296v-0.812h0.153c0.092 0.004 0.184-0.015 0.267-0.057 0.068-0.038 0.123-0.092 0.162-0.157l0.001-0.002c0.034-0.055 0.057-0.117 0.068-0.181 0.010-0.065 0.016-0.141 0.016-0.218 0-0.007-0-0.013-0-0.020v0.001c0.003-0.1-0.007-0.2-0.029-0.297-0.021-0.075-0.059-0.139-0.109-0.191l0 0zM16.438 21.553c-0.001 0.040-0.011 0.077-0.028 0.11l0.001-0.002c-0.017 0.032-0.044 0.057-0.076 0.072l-0.001 0c-0.037 0.017-0.079 0.027-0.124 0.027-0.005 0-0.011-0-0.016-0l0.001 0h-0.135v-0.707h0.153c0.004-0 0.009-0 0.014-0 0.043 0 0.084 0.010 0.121 0.027l-0.002-0.001c0.031 0.018 0.055 0.044 0.069 0.076l0 0.001c0.016 0.037 0.025 0.076 0.026 0.116v0.138c0 0.048 0.003 0.098 0 0.143h-0.003zM17.995 20.773h-0.243l-0.458 2.080h0.296l0.087-0.447h0.404l0.087 0.447h0.296l-0.47-2.080zM17.721 22.123l0.146-0.754h0.005l0.145 0.754h-0.296zM19.909 22.026h-0.005l-0.448-1.253h-0.285v2.080h0.296v-1.251h0.006l0.453 1.25h0.279v-2.079h-0.296v1.253zM21.72 20.773l-0.238 0.827h-0.006l-0.238-0.827h-0.313l0.407 1.201v0.879h0.296v-0.879l0.407-1.201h-0.314zM9.962 23.44h0.143v0.401h0.097v-0.401h0.142v-0.082h-0.382v0.082zM11.163 23.358l-0.187 0.483h0.103l0.040-0.11h0.193l0.041 0.11h0.106l-0.192-0.483h-0.103zM11.148 23.649l0.066-0.179 0.066 0.179h-0.131zM12.35 23.663h0.112v0.062c-0.031 0.025-0.071 0.040-0.115 0.041h-0c-0.002 0-0.005 0-0.007 0-0.039 0-0.073-0.018-0.096-0.046l-0-0c-0.022-0.032-0.036-0.072-0.036-0.115 0-0.004 0-0.008 0-0.011l-0 0.001c0-0.107 0.046-0.161 0.139-0.161 0.003-0 0.007-0.001 0.010-0.001 0.048 0 0.088 0.033 0.099 0.077l0 0.001 0.095-0.019c-0.021-0.094-0.088-0.142-0.205-0.142-0.002-0-0.004-0-0.006-0-0.063 0-0.12 0.024-0.163 0.062l0-0c-0.043 0.043-0.070 0.102-0.070 0.168 0 0.006 0 0.013 0.001 0.019l-0-0.001c-0 0.003-0 0.007-0 0.011 0 0.065 0.024 0.124 0.062 0.17l-0-0c0.043 0.044 0.102 0.071 0.168 0.071 0.005 0 0.010-0 0.016-0l-0.001 0c0.002 0 0.005 0 0.008 0 0.076 0 0.145-0.029 0.197-0.077l-0 0v-0.19h-0.209v0.081zM13.561 23.358h-0.097v0.483h0.338v-0.082h-0.241v-0.401zM14.587 23.358h-0.098v0.483h0.098v-0.483zM15.588 23.68l-0.198-0.322h-0.095v0.483h0.091v-0.315l0.194 0.315h0.097v-0.483h-0.089v0.323zM16.494 23.628h0.241v-0.082h-0.241v-0.106h0.259v-0.082h-0.357v0.483h0.366v-0.082h-0.269v-0.131zM18.69 23.548h-0.19v-0.19h-0.097v0.483h0.097v-0.211h0.19v0.211h0.097v-0.483h-0.097v0.191zM19.602 23.628h0.241v-0.082h-0.241v-0.106h0.26v-0.082h-0.356v0.483h0.366v-0.082h-0.269v-0.131zM20.837 23.628c0.084-0.013 0.127-0.058 0.127-0.134 0.001-0.004 0.001-0.009 0.001-0.014 0-0.038-0.019-0.072-0.048-0.093l-0-0c-0.036-0.018-0.078-0.029-0.122-0.029-0.007 0-0.013 0-0.020 0.001l0.001-0h-0.205v0.483h0.097v-0.202h0.019c0.002-0 0.005-0 0.008-0 0.019 0 0.037 0.004 0.053 0.011l-0.001-0c0.014 0.009 0.026 0.021 0.034 0.035l0.105 0.153h0.116l-0.059-0.094c-0.027-0.047-0.063-0.086-0.106-0.115l-0.001-0.001zM20.74 23.561h-0.072v-0.121h0.076c0.006-0.001 0.013-0.001 0.020-0.001 0.028 0 0.055 0.005 0.080 0.013l-0.002-0c0.013 0.012 0.021 0.028 0.021 0.047 0 0.011-0.003 0.021-0.008 0.030l0-0c-0.005 0.009-0.011 0.016-0.018 0.021l-0 0c-0.024 0.008-0.052 0.012-0.081 0.012-0.006 0-0.012-0-0.019-0.001l0.001 0zM21.769 23.628h0.24v-0.082h-0.241v-0.106h0.26v-0.082h-0.357v0.483h0.366v-0.082h-0.269v-0.131z"></path>
</symbol>
<symbol id="icon-logo-foster-peters" viewBox="0 0 32 32">
<path d="M7.669 13.534h-0.001c-0.683 0-1.237 0.54-1.237 1.205v0.001c0 0.665 0.554 1.205 1.237 1.205h0.001c0.683 0 1.237-0.54 1.237-1.205v-0.001c0-0.665-0.554-1.205-1.237-1.205zM16.796 13.149c-0.002-0.925-0.38-1.811-1.051-2.464s-1.579-1.022-2.528-1.024c-0.949 0.002-1.858 0.37-2.53 1.023s-1.049 1.54-1.051 2.465v5.097s7.158-0.777 7.159-5.097v-0.001zM3.925 19.919c0.003 0.673 0.283 1.28 0.731 1.714l0.001 0.001c0.455 0.441 1.075 0.713 1.759 0.713h0c0.684-0.001 1.304-0.272 1.759-0.713l-0.001 0.001c0.449-0.435 0.728-1.041 0.732-1.713v-3.548s-4.981 0.542-4.981 3.547zM6.415 20.555c-0 0-0.001 0-0.001 0-0.134 0-0.259-0.040-0.364-0.108l0.003 0.002c-0.106-0.069-0.189-0.166-0.239-0.281l-0.002-0.004c-0.031-0.072-0.049-0.155-0.049-0.243 0-0.044 0.005-0.087 0.013-0.128l-0.001 0.004c0.027-0.129 0.090-0.24 0.178-0.325l0-0c0.089-0.087 0.203-0.148 0.33-0.173l0.004-0.001c0.127-0.025 0.258-0.012 0.377 0.036s0.221 0.13 0.293 0.234c0.069 0.099 0.11 0.222 0.11 0.354 0 0.088-0.018 0.171-0.051 0.247l0.002-0.004c-0.033 0.078-0.081 0.148-0.141 0.207s-0.133 0.106-0.212 0.138c-0.074 0.031-0.16 0.049-0.25 0.049-0 0-0 0-0 0v0-0.002zM11.499 20.16h-0.51v0.526h-0.266v-1.287h0.839v0.215h-0.573v0.332h0.509v0.214zM12.774 20.072c0 0.127-0.022 0.238-0.067 0.334s-0.109 0.169-0.193 0.221c-0.079 0.049-0.174 0.078-0.277 0.078-0.004 0-0.007-0-0.011-0h0.001c-0.107 0-0.202-0.026-0.286-0.077-0.085-0.053-0.151-0.128-0.193-0.216l-0.001-0.003c-0.044-0.093-0.070-0.203-0.070-0.318 0-0.004 0-0.008 0-0.011v0.001-0.064c0-0.127 0.023-0.238 0.068-0.334s0.111-0.171 0.194-0.222c0.084-0.052 0.179-0.078 0.287-0.078s0.202 0.026 0.286 0.078c0.084 0.051 0.148 0.125 0.194 0.222s0.069 0.207 0.069 0.334v0.057zM12.505 20.014c0-0.135-0.024-0.238-0.072-0.308-0.043-0.064-0.115-0.105-0.197-0.105-0.004 0-0.007 0-0.011 0l0.001-0c-0.003-0-0.007-0-0.010-0-0.081 0-0.153 0.041-0.196 0.104l-0.001 0.001c-0.048 0.069-0.073 0.17-0.073 0.304v0.063c0 0.132 0.024 0.234 0.072 0.306s0.118 0.109 0.209 0.109c0.003 0 0.007 0 0.010 0 0.081 0 0.152-0.041 0.194-0.104l0.001-0.001c0.048-0.070 0.072-0.172 0.072-0.306v-0.063zM13.634 20.349c0-0.002 0-0.005 0-0.007 0-0.044-0.021-0.082-0.053-0.107l-0-0c-0.035-0.027-0.099-0.056-0.191-0.085-0.085-0.026-0.157-0.056-0.226-0.092l0.008 0.004c-0.146-0.079-0.219-0.185-0.219-0.319 0-0.069 0.019-0.132 0.058-0.186s0.096-0.098 0.169-0.128c0.074-0.030 0.156-0.046 0.248-0.046s0.174 0.017 0.246 0.050c0.072 0.033 0.127 0.080 0.167 0.141s0.060 0.13 0.060 0.207h-0.266c0-0.059-0.018-0.105-0.056-0.137s-0.089-0.050-0.157-0.050c-0.065 0-0.115 0.014-0.151 0.042-0.033 0.024-0.054 0.062-0.054 0.105 0 0.001 0 0.002 0 0.003v-0c0 0.042 0.021 0.077 0.063 0.105s0.104 0.055 0.187 0.080c0.151 0.045 0.261 0.102 0.33 0.169s0.103 0.151 0.103 0.251c0 0.112-0.042 0.199-0.127 0.263s-0.198 0.095-0.341 0.095c-0.099 0-0.189-0.018-0.271-0.054-0.076-0.033-0.14-0.084-0.186-0.148l-0.001-0.001c-0.040-0.060-0.064-0.133-0.064-0.212 0-0.003 0-0.005 0-0.008v0h0.266c0 0.142 0.085 0.213 0.255 0.213 0.063 0 0.113-0.013 0.148-0.038 0.032-0.023 0.053-0.061 0.053-0.103 0-0.002-0-0.004-0-0.005v0zM15.051 19.614h-0.395v1.073h-0.265v-1.073h-0.389v-0.215h1.049v0.215zM15.977 20.129h-0.509v0.345h0.598v0.213h-0.863v-1.287h0.862v0.215h-0.596v0.307h0.509v0.208zM16.698 20.215h-0.211v0.471h-0.266v-1.287h0.479c0.152 0 0.269 0.034 0.352 0.102s0.124 0.164 0.124 0.287c0 0.088-0.019 0.161-0.057 0.22-0.043 0.062-0.101 0.11-0.17 0.139l-0.003 0.001 0.279 0.526v0.012h-0.285l-0.241-0.471zM16.487 20h0.214c0.066 0 0.118-0.017 0.155-0.050 0.034-0.033 0.055-0.080 0.055-0.131 0-0.003-0-0.007-0-0.010l0 0c0-0.061-0.017-0.109-0.052-0.143s-0.087-0.052-0.158-0.052h-0.213v0.386zM18.095 20.233v0.454h-0.265v-1.287h0.502c0.097 0 0.182 0.017 0.255 0.053s0.13 0.086 0.17 0.151c0.040 0.065 0.059 0.139 0.059 0.222 0 0.126-0.043 0.226-0.13 0.299s-0.205 0.109-0.358 0.109h-0.232zM18.095 20.018h0.237c0.070 0 0.124-0.017 0.16-0.050s0.056-0.080 0.056-0.141c0-0.003 0-0.006 0-0.009 0-0.056-0.021-0.106-0.056-0.144l0 0c-0.037-0.039-0.088-0.059-0.154-0.060h-0.243v0.405zM19.773 20.129h-0.509v0.345h0.598v0.213h-0.863v-1.287h0.862v0.215h-0.596v0.307h0.51v0.208zM21.005 19.614h-0.395v1.073h-0.265v-1.073h-0.389v-0.215h1.049v0.215zM21.931 20.129h-0.51v0.345h0.598v0.213h-0.863v-1.287h0.861v0.215h-0.596v0.307h0.51v0.208zM22.652 20.215h-0.211v0.471h-0.266v-1.287h0.479c0.152 0 0.27 0.034 0.352 0.102s0.124 0.164 0.124 0.287c0 0.088-0.019 0.161-0.057 0.22-0.043 0.062-0.101 0.11-0.17 0.139l-0.003 0.001 0.279 0.526v0.012h-0.285l-0.241-0.471zM22.441 20h0.214c0.067 0 0.118-0.017 0.155-0.050 0.034-0.033 0.055-0.080 0.055-0.131 0-0.003-0-0.007-0-0.010l0 0c0-0.061-0.017-0.109-0.052-0.143s-0.087-0.052-0.159-0.052h-0.213v0.386zM24 20.349c0-0.002 0-0.005 0-0.007 0-0.044-0.021-0.083-0.053-0.107l-0-0c-0.036-0.027-0.099-0.056-0.191-0.085-0.085-0.026-0.157-0.056-0.226-0.092l0.008 0.004c-0.146-0.079-0.219-0.185-0.219-0.319 0-0.069 0.019-0.132 0.058-0.186s0.096-0.098 0.169-0.128c0.074-0.030 0.156-0.046 0.248-0.046s0.174 0.017 0.246 0.050c0.072 0.033 0.128 0.080 0.167 0.141s0.060 0.13 0.060 0.207h-0.266c0-0.059-0.018-0.105-0.056-0.137s-0.089-0.050-0.157-0.050c-0.065 0-0.115 0.014-0.151 0.042-0.033 0.024-0.054 0.062-0.054 0.105 0 0.001 0 0.002 0 0.003v-0c0 0.042 0.021 0.077 0.063 0.105s0.104 0.055 0.187 0.080c0.151 0.045 0.261 0.102 0.33 0.169s0.103 0.151 0.103 0.251c0 0.112-0.042 0.199-0.127 0.263s-0.198 0.095-0.341 0.095c-0.099 0-0.189-0.018-0.27-0.054-0.076-0.033-0.14-0.084-0.186-0.148l-0.001-0.001c-0.040-0.060-0.064-0.133-0.064-0.212 0-0.003 0-0.005 0-0.008v0h0.266c0 0.142 0.085 0.213 0.255 0.213 0.063 0 0.113-0.013 0.148-0.038 0.032-0.023 0.053-0.061 0.053-0.103 0-0.002-0-0.004-0-0.006v0z"></path>
</symbol>
<symbol id="icon-logo-ya-and-co" viewBox="0 0 32 32">
<path d="M11.17 8.453l2.206 2.088h6.154v5.826l2.206 2.088v-10.003h-10.566z"></path>
<path d="M9.358 10.453v9.717h10.264v-3.862l-6.182-5.852-4.082-0.002zM17.667 18.749h-6.685v-6.535h0.472v6.092h6.212v0.442zM12.314 21.973l0.247-0.509h0.206l-0.359 0.678v0.395h-0.187v-0.395l-0.36-0.678h0.207l0.247 0.509zM13.374 22.287h-0.415l-0.087 0.25h-0.194l0.405-1.073h0.168l0.406 1.073h-0.195l-0.088-0.25zM13.011 22.137h0.311l-0.155-0.445-0.155 0.445zM14.109 22.247c0-0.049 0.014-0.095 0.040-0.136s0.080-0.091 0.16-0.148c-0.033-0.039-0.062-0.083-0.086-0.13l-0.002-0.004c-0.015-0.031-0.024-0.068-0.024-0.107v-0c0-0.084 0.025-0.15 0.077-0.199s0.12-0.074 0.206-0.074c0.079 0 0.142 0.023 0.192 0.069s0.075 0.103 0.075 0.17c0 0 0 0.001 0 0.001 0 0.045-0.013 0.088-0.035 0.124l0.001-0.001c-0.030 0.045-0.067 0.082-0.11 0.111l-0.001 0.001-0.073 0.053 0.207 0.245c0.030-0.059 0.045-0.124 0.045-0.197h0.155c0 0.132-0.031 0.24-0.093 0.325l0.158 0.187h-0.208l-0.060-0.072c-0.073 0.054-0.164 0.086-0.263 0.086-0.004 0-0.008-0-0.012-0h0.001c-0.106 0-0.191-0.028-0.255-0.084-0.059-0.052-0.095-0.127-0.095-0.211 0-0.003 0-0.007 0-0.010v0zM14.464 22.409c0.060 0 0.117-0.020 0.169-0.060l-0.234-0.277-0.023 0.016c-0.059 0.045-0.088 0.096-0.088 0.153 0 0.049 0.016 0.090 0.048 0.121 0.031 0.029 0.073 0.047 0.12 0.047 0.003 0 0.006-0 0.009-0l-0 0zM14.365 21.717c0 0.041 0.025 0.093 0.076 0.155l0.082-0.056 0.023-0.018c0.028-0.024 0.046-0.060 0.046-0.1 0-0.001-0-0.003-0-0.004v0c0-0 0-0.001 0-0.001 0-0.028-0.012-0.053-0.032-0.070l-0-0c-0.020-0.019-0.047-0.030-0.076-0.030-0.001 0-0.003 0-0.004 0h0c-0.001-0-0.003-0-0.005-0-0.031 0-0.059 0.014-0.079 0.035l-0 0c-0.019 0.023-0.031 0.052-0.031 0.085 0 0.002 0 0.003 0 0.005v-0zM16.315 22.188c-0.011 0.114-0.053 0.204-0.127 0.268s-0.172 0.096-0.294 0.096c-0.085 0-0.161-0.020-0.226-0.060-0.066-0.042-0.117-0.101-0.149-0.171l-0.001-0.003c-0.035-0.075-0.055-0.164-0.055-0.257 0-0.001 0-0.003 0-0.004v0-0.1c0-0.101 0.018-0.19 0.054-0.267s0.088-0.137 0.154-0.178c0.068-0.042 0.145-0.063 0.233-0.063 0.119 0 0.214 0.032 0.286 0.097s0.114 0.155 0.126 0.273h-0.186c-0.009-0.077-0.031-0.133-0.068-0.166s-0.089-0.052-0.159-0.052c-0.081 0-0.143 0.030-0.187 0.089s-0.065 0.146-0.066 0.26v0.095c0 0.116 0.021 0.204 0.062 0.265s0.103 0.091 0.183 0.091c0.073 0 0.128-0.017 0.165-0.049s0.060-0.088 0.070-0.164h0.186zM17.339 22.028c0 0.105-0.018 0.197-0.054 0.277s-0.089 0.14-0.156 0.183c-0.067 0.042-0.145 0.063-0.233 0.063-0.087 0-0.165-0.021-0.233-0.063-0.069-0.044-0.123-0.106-0.157-0.179l-0.001-0.003c-0.035-0.077-0.056-0.167-0.056-0.262 0-0.004 0-0.007 0-0.011v0.001-0.060c0-0.105 0.018-0.197 0.055-0.277s0.090-0.141 0.157-0.184c0.068-0.043 0.145-0.064 0.233-0.064s0.165 0.021 0.232 0.063c0.068 0.042 0.12 0.102 0.157 0.181s0.055 0.171 0.056 0.275v0.059zM17.152 21.973c0-0.119-0.023-0.21-0.068-0.273-0.040-0.058-0.106-0.095-0.181-0.095-0.003 0-0.007 0-0.010 0l0-0c-0.002-0-0.005-0-0.008-0-0.075 0-0.141 0.037-0.181 0.095l-0 0.001c-0.045 0.063-0.068 0.152-0.069 0.267v0.062c0 0.118 0.023 0.209 0.069 0.273s0.11 0.097 0.191 0.097c0.083 0 0.146-0.031 0.19-0.095s0.067-0.155 0.067-0.276v-0.056z"></path>
</symbol>
<symbol id="icon-menu-close" viewBox="0 0 32 32">
<path d="M23.734 10.304l-1.504-1.504-5.963 5.962-5.962-5.962-1.504 1.504 5.962 5.962-5.962 5.963 1.504 1.504 5.962-5.963 5.963 5.963 1.504-1.504-5.963-5.963 5.963-5.962z"></path>
</symbol>
<symbol id="icon-menu-mobile" viewBox="0 0 32 32">
<path d="M6.4 11.734v-2.134h19.2v2.134h-19.2zM6.4 17.066h19.2v-2.133h-19.2v2.133zM6.4 22.4h19.2v-2.134h-19.2v2.134z"></path>
</symbol>
<symbol id="icon-message" viewBox="0 0 32 32">
<path d="M29 4h-26c-1.654 0-3 1.346-3 3v18c0 1.654 1.346 3 3 3h26c1.654 0 3-1.346 3-3v-18c0-1.654-1.346-3-3-3zM29 6c0.136 0 0.266 0.028 0.384 0.078l-13.384 11.6-13.384-11.6c0.113-0.049 0.245-0.078 0.384-0.078h26zM29 26h-26c-0.552 0-1-0.448-1-1v0-16.81l13.344 11.566c0.175 0.152 0.404 0.245 0.656 0.245s0.481-0.093 0.657-0.246l-0.001 0.001 13.344-11.566v16.81c0 0.552-0.448 1-1 1v0z"></path>
</symbol>
<symbol id="icon-smartphone" viewBox="0 0 32 32">
<path d="M23 0h-14c-1.654 0-3 1.346-3 3v26c0 1.654 1.346 3 3 3h14c1.654 0 3-1.346 3-3v-26c0-1.654-1.346-3-3-3zM9 2h14c0.552 0 1 0.448 1 1v0 21h-16v-21c0-0.552 0.448-1 1-1v0zM23 30h-14c-0.552 0-1-0.448-1-1v0-3h16v3c0 0.552-0.448 1-1 1v0z"></path>
<path d="M10.708 27.478c0.18 0.163 0.293 0.399 0.293 0.66s-0.113 0.497-0.292 0.659l-0.001 0.001c-0.186 0.17-0.435 0.275-0.708 0.275s-0.522-0.104-0.709-0.275l0.001 0.001c-0.18-0.163-0.293-0.399-0.293-0.66s0.113-0.497 0.292-0.659l0.001-0.001c0.186-0.17 0.435-0.275 0.708-0.275s0.522 0.104 0.709 0.275l-0.001-0.001z"></path>
</symbol>
<symbol id="icon-telegram" viewBox="0 0 32 32">
<path d="M32 0l-32 18 10.227 3.787 15.773-14.787-11.997 16.187 0.009 0.003-0.012-0.003v8.813l5.735-6.691 7.267 2.691 4.999-28z"></path>
</symbol>
<symbol id="icon-twitter-white" viewBox="0 0 32 32">
<path d="M32 6.078c-1.1 0.493-2.376 0.857-3.713 1.028l-0.068 0.007c1.36-0.817 2.382-2.078 2.873-3.579l0.013-0.046c-1.197 0.722-2.591 1.273-4.076 1.573l-0.084 0.014c-1.2-1.279-2.9-2.076-4.787-2.076-3.622 0-6.558 2.936-6.558 6.558 0 0.001 0 0.003 0 0.004v-0c0 0.52 0.043 1.021 0.152 1.496-5.454-0.266-10.28-2.88-13.522-6.861-0.564 0.949-0.899 2.092-0.902 3.313v0.001c0 2.272 1.171 4.286 2.914 5.451-1.091-0.030-2.107-0.325-2.994-0.823l0.033 0.017v0.072c0.003 3.165 2.236 5.807 5.213 6.44l0.043 0.008c-0.499 0.136-1.071 0.215-1.662 0.215-0.020 0-0.041-0-0.061-0l0.003 0c-0.419 0-0.843-0.024-1.242-0.112 0.85 2.598 3.261 4.509 6.13 4.57-2.215 1.746-5.045 2.8-8.122 2.8-0.004 0-0.008 0-0.013 0h0.001c-0.018 0-0.040 0-0.062 0-0.531 0-1.055-0.034-1.569-0.099l0.061 0.006c2.826 1.846 6.287 2.944 10.004 2.944 0.021 0 0.042-0 0.063-0h-0.003c12.072 0 18.672-10 18.672-18.669 0-0.288-0.010-0.57-0.024-0.848 1.299-0.936 2.39-2.064 3.258-3.355l0.030-0.047z"></path>
</symbol>
<symbol id="icon-worker-facebook" viewBox="0 0 32 32">
<path d="M21.328 5.312h2.923v-5.088c-1.232-0.143-2.66-0.224-4.107-0.224-0.052 0-0.104 0-0.157 0l0.008-0c-4.213 0-7.099 2.65-7.099 7.52v4.48h-4.646v5.688h4.646v14.312h5.698v-14.31h4.461l0.707-5.688h-5.168v-3.922c0-1.643 0.443-2.768 2.734-2.768z"></path>
</symbol>
<symbol id="icon-worker-instagram" viewBox="0 0 32 32">
<path d="M31.968 9.408c-0.074-1.701-0.349-2.869-0.742-3.882-0.424-1.111-1.054-2.059-1.85-2.837l-0.001-0.001c-0.78-0.792-1.724-1.419-2.778-1.827l-0.054-0.018c-1.019-0.394-2.181-0.667-3.882-0.742-1.712-0.082-2.256-0.101-6.602-0.101-4.344 0-4.888 0.019-6.595 0.094-1.699 0.074-2.869 0.349-3.88 0.742-1.112 0.424-2.060 1.054-2.839 1.85l-0.001 0.001c-0.791 0.78-1.418 1.724-1.825 2.778l-0.018 0.054c-0.395 1.019-0.669 2.181-0.744 3.882-0.082 1.712-0.101 2.256-0.101 6.602 0 4.344 0.019 4.888 0.094 6.595 0.075 1.701 0.35 2.869 0.744 3.882 0.426 1.11 1.055 2.057 1.849 2.837l0.001 0.001c0.8 0.813 1.77 1.443 2.832 1.843 1.019 0.395 2.182 0.67 3.882 0.744 1.707 0.075 2.251 0.094 6.595 0.094 4.346 0 4.89-0.019 6.595-0.094 1.701-0.074 2.869-0.349 3.882-0.742 2.157-0.85 3.833-2.526 4.664-4.628l0.019-0.055c0.394-1.019 0.669-2.182 0.744-3.882 0.075-1.707 0.093-2.251 0.093-6.595s-0.006-4.888-0.080-6.595zM29.088 22.474c-0.070 1.563-0.333 2.406-0.55 2.97-0.552 1.399-1.64 2.486-3.004 3.024l-0.036 0.012c-0.56 0.219-1.411 0.482-2.968 0.55-1.688 0.075-2.194 0.094-6.464 0.094-4.269 0-4.782-0.019-6.464-0.094-1.563-0.069-2.406-0.331-2.97-0.55-0.721-0.269-1.334-0.676-1.836-1.192l-0.001-0.001c-0.517-0.503-0.924-1.117-1.184-1.803l-0.011-0.034c-0.218-0.563-0.48-1.413-0.549-2.97-0.075-1.688-0.094-2.195-0.094-6.464 0-4.27 0.019-4.784 0.094-6.464 0.069-1.563 0.331-2.406 0.549-2.97 0.269-0.722 0.678-1.337 1.198-1.837l0.002-0.002c0.504-0.517 1.119-0.923 1.806-1.182l0.034-0.011c0.56-0.219 1.411-0.48 2.968-0.55 1.688-0.074 2.195-0.093 6.464-0.093 4.275 0 4.782 0.019 6.464 0.093 1.563 0.069 2.406 0.331 2.97 0.55 0.693 0.256 1.325 0.662 1.837 1.194 0.531 0.52 0.938 1.144 1.195 1.84 0.218 0.56 0.48 1.411 0.549 2.968 0.075 1.688 0.094 2.194 0.094 6.464 0 4.269-0.019 4.768-0.094 6.458z"></path>
<path d="M16.059 7.782c-4.539 0.002-8.218 3.682-8.219 8.221v0c0.091 4.471 3.737 8.060 8.221 8.060s8.13-3.589 8.221-8.052l0-0.009c-0.001-4.54-3.681-8.22-8.221-8.221h-0zM16.059 21.334c-2.945-0-5.332-2.388-5.332-5.333s2.388-5.333 5.333-5.333c0 0 0.001 0 0.001 0h-0c2.946 0 5.334 2.388 5.334 5.334s-2.388 5.334-5.334 5.334v0zM26.525 7.458c0 1.060-0.86 1.92-1.92 1.92s-1.92-0.86-1.92-1.92v0c0-1.060 0.86-1.92 1.92-1.92s1.92 0.86 1.92 1.92v0z"></path>
</symbol>
<symbol id="icon-worker-linkedin" viewBox="0 0 32 32">
<path d="M31.992 32h0.008v-11.738c0-5.741-1.235-10.163-7.947-10.163-3.227 0-5.392 1.77-6.277 3.45h-0.093v-2.914h-6.365v21.363h6.627v-10.578c0-2.786 0.528-5.48 3.978-5.48 3.398 0 3.45 3.179 3.45 5.658v10.402h6.619zM0.528 10.635h6.635v21.365h-6.635v-21.365zM3.843 0c-2.123 0-3.843 1.721-3.843 3.843v0c0 2.12 1.722 3.878 3.843 3.878 2.12 0 3.842-1.757 3.842-3.878s-1.72-3.841-3.841-3.843h-0z"></path>
</symbol>
<symbol id="icon-worker-twitter" viewBox="0 0 32 32">
<path d="M32 6.078c-1.1 0.493-2.376 0.857-3.713 1.028l-0.068 0.007c1.36-0.817 2.382-2.078 2.873-3.579l0.013-0.046c-1.197 0.722-2.591 1.273-4.076 1.573l-0.084 0.014c-1.2-1.279-2.9-2.076-4.787-2.076-3.622 0-6.558 2.936-6.558 6.558 0 0.001 0 0.003 0 0.004v-0c0 0.52 0.043 1.021 0.152 1.496-5.454-0.266-10.28-2.88-13.522-6.861-0.564 0.949-0.899 2.092-0.902 3.313v0.001c0 2.272 1.171 4.286 2.914 5.451-1.091-0.030-2.107-0.325-2.994-0.823l0.033 0.017v0.072c0.003 3.165 2.236 5.807 5.213 6.44l0.043 0.008c-0.499 0.136-1.071 0.215-1.662 0.215-0.020 0-0.041-0-0.061-0l0.003 0c-0.419 0-0.843-0.024-1.242-0.112 0.85 2.598 3.261 4.509 6.13 4.57-2.215 1.746-5.045 2.8-8.122 2.8-0.004 0-0.008 0-0.013 0h0.001c-0.018 0-0.040 0-0.062 0-0.531 0-1.055-0.034-1.569-0.099l0.061 0.006c2.826 1.846 6.287 2.944 10.004 2.944 0.021 0 0.042-0 0.063-0h-0.003c12.072 0 18.672-10 18.672-18.669 0-0.288-0.010-0.57-0.024-0.848 1.299-0.936 2.39-2.064 3.258-3.355l0.030-0.047z"></path>
</symbol>
</defs>
</svg>
